<svg width="278" height="410" viewBox="0 0 278 410" xmlns="http://www.w3.org/2000/svg" xmlns:xlink="http://www.w3.org/1999/xlink"><defs><path id="a" d="M.028.805H3.67v3.643H.028z"/></defs><g fill="none" fill-rule="evenodd"><path d="M111.013 260.772c-1.95 12.47-4.554 24.771-8.133 36.777-2 6.713-5.668 14.423-12.627 15.235-5.036-5.499-13.833-7.12-20.498-3.776-6.665 3.342-10.625 11.362-9.224 18.685-8.63 2.893-14.686 12.094-13.926 21.163.347 4.14 2.108 8.06 4.763 11.243-.118-.004-.237-.017-.356-.017-.29 0-.581.011-.874.034a10.932 10.932 0 00-7.504 3.824 10.928 10.928 0 00-2.599 8.006c.448 5.684 5.263 10.136 10.961 10.136a10.927 10.927 0 005.804-1.662 16.45 16.45 0 0010.522 3.785c2.814 0 5.462-.708 7.783-1.95a18.181 18.181 0 004.272 1.4c7.843 1.51 16.438-2.402 20.448-9.31 5.591 4.135 13.69 4.529 19.657.96 2.758 6.533 11.019 10.13 17.684 7.703.918 9.645 10.383 17.648 20.05 16.95 9.668-.696 17.888-9.972 17.412-19.651 1.906.682 3.914.991 5.925.979 2.578 7.184 9.437 12.346 17.498 12.346 9.892 0 18.004-7.76 18.57-17.511a10.202 10.202 0 006.92-3.563 10.2 10.2 0 002.426-7.48c-.36-4.573-3.754-8.285-8.09-9.222a20.817 20.817 0 001.344-3.845c1.898-7.996-1.178-16.959-7.59-22.102-3.62-2.905-3.47-2.735-4.567-7.292-1.808-7.506-8.097-13.748-15.618-15.498-7.523-1.753-15.923 1.07-20.862 7.005-11.09-2.099-13.064-16.583-13.96-21.697-5.322-30.376-10.549-59.312-13.049-89.073-6.57-78.174-1.89-99.354-12.221-99.354-6.253 0-10.871 13.018-10.912 15.614-.202 13.009-.941 26.013-1.702 39-1.706 29.05-2.3 59.122-5.85 88.538M112.074 253.463c-.048.358-.098.714-.148 1.074" fill="#FFF"/><path d="M190 306.712c-7.113-1.082-14.745 1.742-19.358 7.288-11.08-2.1-13.053-16.575-13.949-21.685-5.317-30.357-10.537-59.277-13.036-89.02-6.563-78.126-1.89-99.295-12.209-99.295-6.248 0-10.862 13.012-10.903 15.606-.202 13.001-.94 25.996-1.701 38.976-1.704 29.032-2.297 59.086-5.844 88.485" stroke="#004680" stroke-width="1.4" stroke-linecap="round" stroke-linejoin="round"/><path d="M111.013 260c-1.95 12.45-4.554 24.731-8.133 36.717-2 6.702-5.668 14.4-12.627 15.21-5.036-5.49-13.833-7.109-20.498-3.77-6.665 3.337-10.625 11.344-9.224 18.655-8.63 2.888-14.686 12.074-13.926 21.128.347 4.133 2.108 8.046 4.763 11.225-.118-.005-.237-.017-.356-.017-.29 0-.581.01-.874.034a10.938 10.938 0 00-7.504 3.817 10.899 10.899 0 00-2.599 7.993c.448 5.675 5.263 10.12 10.961 10.12a10.94 10.94 0 005.804-1.66 16.467 16.467 0 0010.522 3.779c2.814 0 5.462-.707 7.783-1.947a18.202 18.202 0 004.272 1.397c7.843 1.508 16.438-2.397 20.448-9.293 5.591 4.127 13.69 4.52 19.657.957 2.758 6.523 11.019 10.115 17.684 7.691.918 9.63 10.383 17.62 20.05 16.922 9.668-.695 17.888-9.956 17.412-19.619 1.906.68 3.914.99 5.925.977 2.578 7.173 9.437 12.326 17.498 12.326 9.892 0 18.004-7.747 18.57-17.482a10.208 10.208 0 006.92-3.557 10.173 10.173 0 002.426-7.467c-.36-4.566-3.754-8.272-8.09-9.208a20.76 20.76 0 001.344-3.839c1.898-7.982-1.178-16.93-7.59-22.065-3.62-2.9-3.47-2.73-4.567-7.28-1.437-5.953-5.7-11.11-11.165-13.854M112.074 253.463c-.048.358-.098.714-.148 1.074" stroke="#004680" stroke-width="1.4" stroke-linecap="round" stroke-linejoin="round"/><path d="M125.11 114c-1.845 16.764-2.214 24.471 5.539 58 4.983-31.987 5.168-36.418 3.137-58" fill="#DCE7F2"/><path d="M126.707 115c-1.176 8.092-1.41 11.814 3.523 28 3.173-15.44 3.29-17.582 1.997-28" fill="#FFF"/><path d="M102.353 80.697l-.461-3.981c-.845-7.304.937-14.717 4.788-19.928l8-10.825c-1.993 19.526-2.1 29.502 2.597 41.875-4.018 3.84-7.579 6.67-9.934 8.416-1.434 1.064-3.207-.128-3.462-2.326l-.402-3.498" fill="#FF6E6E"/><path d="M102.353 80.697l-.461-3.981c-.845-7.304.937-14.717 4.788-19.928l8-10.825c-1.993 19.526-2.1 29.502 2.597 41.875-4.018 3.84-7.579 6.67-9.934 8.416-1.434 1.064-3.207-.128-3.462-2.326l-.402-3.498" stroke="#004680" stroke-width="1.4" stroke-linecap="round" stroke-linejoin="round"/><path d="M150.232 44.668c2.29 10.372 2.894 21.557 1.663 34.628-.545 5.761-1.356 11.523-2.686 17.064a75.326 75.326 0 01-1.569 5.616c-1.017 3.116-2.268 6.095-3.829 8.778a23.267 23.267 0 01-1.183 1.832c-6.19 8.706-17.633 12.25-25.91-.014-1.834-2.717-3.516-6.22-4.946-10.609-.033-.087-.06-.181-.092-.28-1.737-5.39-2.813-11.137-3.558-16.911a149.84 149.84 0 01-.611-5.476c-2.122-22.508 1.197-39.418 9.195-56.217.352-.752.724-1.513 1.103-2.265 1.988-3.976 4.243-7.953 6.742-12.016.552-.906 2.174-3.51 5.151-7.44 2.414 3.19 3.978 5.522 5.153 7.44 2.368 3.838 4.507 7.62 6.417 11.377.464.92.916 1.838 1.356 2.757a110.426 110.426 0 013.515 8.164" fill="#FFF"/><path d="M150.232 44.668c2.29 10.372 2.894 21.557 1.663 34.628-.545 5.761-1.356 11.523-2.686 17.064a75.326 75.326 0 01-1.569 5.616c-1.017 3.116-2.268 6.095-3.829 8.778a23.267 23.267 0 01-1.183 1.832c-6.19 8.706-17.633 12.25-25.91-.014-1.834-2.717-3.516-6.22-4.946-10.609-.033-.087-.06-.181-.092-.28-1.737-5.39-2.813-11.137-3.558-16.911a149.84 149.84 0 01-.611-5.476c-2.122-22.508 1.197-39.418 9.195-56.217.352-.752.724-1.513 1.103-2.265 1.988-3.976 4.243-7.953 6.742-12.016.552-.906 2.174-3.51 5.151-7.44 2.414 3.19 3.978 5.522 5.153 7.44 2.368 3.838 4.507 7.62 6.417 11.377.464.92.916 1.838 1.356 2.757a110.426 110.426 0 013.515 8.164" stroke="#004680" stroke-width="1.4" stroke-linecap="round" stroke-linejoin="round"/><path d="M102.92 86.059l-.038-.329" fill="#DCE7F2"/><path d="M102.92 86.059l-.038-.329" stroke="#004680" stroke-width="1.4" stroke-linecap="round" stroke-linejoin="round"/><path d="M148.733 38.95c.097.33.193.66.288.991" fill="#FFF"/><path d="M148.733 38.95c.097.33.193.66.288.991" stroke="#004680" stroke-width="1.4" stroke-linecap="round" stroke-linejoin="round"/><path d="M143 113.02c-6.212 8.78-17.695 12.359-26-.02 3.582 1.118 8.106 1.772 13.029 1.772 4.897 0 9.4-.654 12.971-1.752" fill="#FF6E6E"/><path d="M143 113.02c-6.212 8.78-17.695 12.359-26-.02 3.582 1.118 8.106 1.772 13.029 1.772 4.897 0 9.4-.654 12.971-1.752z" stroke="#004680" stroke-width="1.4" stroke-linecap="round" stroke-linejoin="round"/><path d="M147.11 72c-.531 19.714-1.728 29.571-8.11 40.659a125.65 125.65 0 008.976 10.638c1.316 1.387 3.27.63 3.815-1.477l4.269-16.496c1.812-6.999.974-14.725-2.25-20.768L147.11 72z" fill="#FF6E6E"/><path d="M147.11 72c-.531 19.714-1.728 29.571-8.11 40.659a125.65 125.65 0 008.976 10.638c1.316 1.387 3.27.63 3.815-1.477l4.269-16.496c1.812-6.999.974-14.725-2.25-20.768L147.11 72z" stroke="#004680" stroke-width="1.4" stroke-linecap="round" stroke-linejoin="round"/><path d="M121.492 62.865c-2.676 4.5-7.01 4.465-9.68-.078-2.668-4.542-2.662-11.872.016-16.373 2.677-4.5 7.012-4.466 9.68.078 1.87 3.18 2.424 7.727 1.674 11.713" fill="#CEDEFB"/><path d="M121.492 62.865c-2.676 4.5-7.01 4.465-9.68-.078-2.668-4.542-2.662-11.872.016-16.373 2.677-4.5 7.012-4.466 9.68.078 1.87 3.18 2.424 7.727 1.674 11.713" stroke="#004680" stroke-width="1.4" stroke-linecap="round" stroke-linejoin="round"/><path d="M112.391 72.395c1.035-2.646 3.374-3 5.226-.794 1.85 2.21 2.512 6.143 1.476 8.79-1.033 2.645-3.374 2.998-5.224.791-.884-1.053-1.497-2.503-1.782-4.016" fill="#CEDEFB"/><path d="M112.391 72.395c1.035-2.646 3.374-3 5.226-.794 1.85 2.21 2.512 6.143 1.476 8.79-1.033 2.645-3.374 2.998-5.224.791-.884-1.053-1.497-2.503-1.782-4.016" stroke="#004680" stroke-width="1.4" stroke-linecap="round" stroke-linejoin="round"/><path d="M143 23.266A20.304 20.304 0 01129.915 28 20.338 20.338 0 01117 23.411c.353-.743.727-1.49 1.106-2.233 1.994-3.92 4.255-7.84 6.762-11.844.554-.893 2.18-3.46 5.167-7.334 2.421 3.144 3.99 5.442 5.169 7.334 2.374 3.781 4.522 7.51 6.436 11.214.465.906.919 1.811 1.36 2.718" fill="#FF6E6E"/><path d="M143 23.266A20.304 20.304 0 01129.915 28 20.338 20.338 0 01117 23.411c.353-.743.727-1.49 1.106-2.233 1.994-3.92 4.255-7.84 6.762-11.844.554-.893 2.18-3.46 5.167-7.334 2.421 3.144 3.99 5.442 5.169 7.334 2.374 3.781 4.522 7.51 6.436 11.214.465.906.919 1.811 1.36 2.718z" stroke="#004680" stroke-width="1.4" stroke-linecap="round" stroke-linejoin="round"/><path d="M68.578 381.94c-3.49 0-6.878-1.183-9.539-3.329l-.678-.548-.748.454a9.812 9.812 0 01-4.299 1.38c-.232.013-.485.027-.75.027-4.953 0-9.138-3.769-9.533-8.577a8.996 8.996 0 012.258-6.754 9.432 9.432 0 014.354-2.82 10.297 10.297 0 00-.036 2.16c.441 5.646 5.37 10.075 11.214 10.075.328 0 .636-.004.943-.04a11.205 11.205 0 004.25-1.19 16.725 16.725 0 009.726 3.111c2.48 0 4.935-.548 7.136-1.592 1.185.488 2.406.854 3.642 1.083 1.093.205 2.228.31 3.368.31 3.317 0 6.575-.862 9.423-2.394-3.141 5.126-9.231 8.43-15.567 8.43-1.053 0-2.102-.094-3.114-.283a17.223 17.223 0 01-3.894-1.243l-.557-.257-.543.283a15.287 15.287 0 01-7.056 1.713m128.238 8.987c-7.16 0-13.593-4.41-16.013-10.972l-.29-.787h-.859c-1.911 0-3.73-.291-5.41-.868l-.487-.166a16.706 16.706 0 001.204-5.294 17.86 17.86 0 003.342.452c2.793 6.59 9.453 10.963 16.83 10.963 9.299 0 17.06-6.806 18.098-15.665a10.67 10.67 0 006.114-3.431 10.29 10.29 0 002.212-4.158 8.348 8.348 0 011.414 3.994 8.345 8.345 0 01-2.09 6.268 8.887 8.887 0 01-5.958 2.986l-1.052.09-.063 1.024c-.516 8.728-7.98 15.564-16.992 15.564M155.613 397c-8.58 0-16.508-6.927-17.31-15.128l-.15-1.529-1.485.526a11.605 11.605 0 01-3.907.655c-5.128 0-10.018-3.018-11.892-7.34l-.548-1.263-1.207.707c-2.414 1.406-5.267 2.152-8.253 2.152-3.547 0-6.983-1.065-9.677-2.994l-.457-.33c1.98-1.287 3.71-2.92 5.053-4.818 2.718 1.63 5.978 2.519 9.317 2.519 2.742 0 5.393-.59 7.741-1.71 2.42 4.213 7.439 7.064 12.665 7.064 1.034 0 2.042-.112 3.016-.334 1.574 8.121 9.595 14.732 18.233 14.732.39 0 .78-.013 1.172-.04 6.19-.437 11.717-4.264 14.707-9.433-.164 8.19-7.524 15.933-15.968 16.53-.348.023-.7.034-1.05.034" fill="#DCE7F2"/><path d="M23.706 360c-3.86 0-7.265 1.969-9.304 4.974a7.583 7.583 0 00-.65-.034c-4.199 0-7.6 3.53-7.6 7.886 0 .608.073 1.194.199 1.764-2.986.2-5.351 2.893-5.351 6.195C1 384.218 3.553 387 6.704 387c1.786 0 3.378-.893 4.424-2.29a6.06 6.06 0 002.305.463c2.307 0 4.333-1.304 5.499-3.27 1.449.69 3.066 1.076 4.774 1.076 6.236 0 11.294-5.144 11.294-11.49C35 365.145 29.942 360 23.706 360" fill="#FFF"/><path d="M29.435 362.058c-.275-.2-.612.162-.394.422a10.323 10.323 0 012.406 6.66c0 5.605-4.38 10.149-9.783 10.149a9.44 9.44 0 01-3.907-.845.283.283 0 00-.359.112c-1.026 1.613-2.715 2.67-4.63 2.67a5.11 5.11 0 01-1.8-.33.285.285 0 00-.326.09c-.905 1.136-2.228 1.856-3.7 1.856-2.142 0-3.961-1.517-4.647-3.634-.04-.128-.226-.112-.243.02-.448 3.58 2.07 6.772 5.318 6.772 1.606 0 3.047-.786 4.033-2.03.078-.1.209-.137.328-.092.62.234 1.28.367 1.972.367 2.087 0 3.926-1.156 5.041-2.921a.284.284 0 01.36-.11c1.308.594 2.749.924 4.265.924 5.872 0 10.631-4.937 10.631-11.025 0-3.751-1.806-7.065-4.565-9.055" fill="#DCE7F2"/><path d="M8 387c1.21-.336 2.265-1.091 3.029-2.116.72.296 1.499.466 2.316.466 2.317 0 4.35-1.313 5.52-3.293a11.105 11.105 0 004.795 1.084c6.261 0 11.34-5.18 11.34-11.57C35 365.18 29.921 360 23.66 360M3.739 385.884c.172.084.346.162.522.232M18 361c-1.3.858-2.42 1.974-3.296 3.282-.22-.02-.44-.036-.666-.036-4.292 0-7.769 3.655-7.769 8.165 0 .63.075 1.239.203 1.827C3.42 374.447 1 377.235 1 380.653c0 .462.044.912.128 1.347" stroke="#004680" stroke-width="1.4" stroke-linecap="round" stroke-linejoin="round"/><path d="M223.563 376.982c-1.938-7.772-9.775-12.491-17.504-10.543a14.351 14.351 0 00-7.85 5.136 19.425 19.425 0 00-13.37-1.41c-10.5 2.647-16.879 13.354-14.246 23.912 2.633 10.56 13.28 16.974 23.782 14.326 5.17-1.304 9.337-4.562 11.925-8.794a8.005 8.005 0 007.54-5.24c7.272-2.26 11.597-9.872 9.723-17.387" fill="#FFF"/><path d="M212.552 393.468a.511.511 0 00-.314.295 6.823 6.823 0 01-6.074 4.24.519.519 0 00-.422.238 16.682 16.682 0 01-10.034 7.252 16.618 16.618 0 01-9.343-.35c-.567-.189-.441-1.022.155-1.022a16.84 16.84 0 004.102-.507 16.691 16.691 0 0010.032-7.254.519.519 0 01.423-.238 6.81 6.81 0 006.073-4.238.519.519 0 01.316-.296c6.071-2.009 9.652-8.41 8.075-14.729a12.286 12.286 0 00-3.464-5.95c-.401-.383-.011-1.056.514-.88a12.33 12.33 0 018.036 8.71c1.58 6.319-2.004 12.72-8.075 14.73" fill="#DCE7F2"/><path d="M203 367a14.26 14.26 0 00-5.015 4.046 19.434 19.434 0 00-13.263-1.389c-9.356 2.34-15.412 11.068-14.659 20.343M206.28 365.935c-.188.042-.374.084-.56.13M170 394.078c2.66 10.56 13.427 16.972 24.046 14.326a19.742 19.742 0 0012.056-8.794 8.117 8.117 0 002.011-.242 8.063 8.063 0 005.614-4.998c7.352-2.262 11.726-9.873 9.832-17.386-1.662-6.587-7.608-10.984-14.14-10.984" stroke="#004680" stroke-width="1.4" stroke-linecap="round" stroke-linejoin="round"/><path d="M167.855 321.628c.715-4.56 3.346-8.536 7.098-11.191" fill="#FFF"/><path d="M167.855 321.628c.715-4.56 3.346-8.536 7.098-11.191" stroke="#004680" stroke-width="1.4" stroke-linecap="round" stroke-linejoin="round"/><path d="M213.91 355.512a11.615 11.615 0 011.734-.129c1.647 0 3.207.345 4.602.962" fill="#FFF"/><path d="M213.91 355.512a11.615 11.615 0 011.734-.129c1.647 0 3.207.345 4.602.962" stroke="#004680" stroke-width="1.4" stroke-linecap="round" stroke-linejoin="round"/><path d="M104.925 367a24.436 24.436 0 003.808-13.141c0-13.47-10.804-24.385-24.119-24.385-3.034 0-5.931.562-8.614 1.605A22.72 22.72 0 0189.006 327C101.704 327 112 337.4 112 350.245A23.246 23.246 0 01104.925 367M171 365.908a16.586 16.586 0 00-6.233-7.148c-7.872-4.981-18.36-2.528-23.422 5.471a17.244 17.244 0 00-2.338 5.769 16.472 16.472 0 012.562-9.322c4.828-7.63 14.82-9.97 22.329-5.217 3.85 2.436 6.296 6.265 7.102 10.447M188 352.592a9.779 9.779 0 00-3.703-4.204c-4.673-2.93-10.9-1.488-13.904 3.218a10.084 10.084 0 00-1.389 3.394 9.628 9.628 0 011.52-5.485c2.867-4.487 8.802-5.863 13.258-3.067a9.333 9.333 0 014.218 6.144M136 325.509a10.346 10.346 0 00-5.784-.243c-5.513 1.353-8.839 6.887-7.43 12.356a10.16 10.16 0 001.568 3.378 9.765 9.765 0 01-3.045-4.934c-1.345-5.216 1.825-10.489 7.084-11.78A9.882 9.882 0 01136 325.51" fill="#DCE7F2"/><path d="M206 398.761c-1.1-.178-2.123-.714-3-1.522" stroke="#004680" stroke-width="1.4" stroke-linecap="round" stroke-linejoin="round"/><path d="M66.974 252.024a3.5 3.5 0 11-4.95 4.95 3.502 3.502 0 010-4.95 3.502 3.502 0 014.95 0" fill="#FFB8B8"/><path d="M28.12 302.88a3.001 3.001 0 11-4.243 4.24 3.001 3.001 0 014.244-4.24" fill="#A4FDD4"/><path d="M262.5 351c1.382 0 2.5 1.118 2.5 2.5s-1.118 2.5-2.5 2.5a2.499 2.499 0 01-2.5-2.5c0-1.382 1.118-2.5 2.5-2.5" fill="#FFB8B8"/><g transform="translate(274 315)"><mask id="b" fill="#fff"><use xlink:href="#a"/></mask><path d="M1.85.805a1.82 1.82 0 110 3.641 1.82 1.82 0 010-3.641" fill="#A0BBFB" mask="url(#b)"/></g><path d="M196.5 269a1.5 1.5 0 11.001 2.999A1.5 1.5 0 01196.5 269" fill="#A4FDD4"/><path d="M81 276a2.001 2.001 0 010 4 2 2 0 010-4M21.5 333a1.5 1.5 0 11.001 2.999A1.5 1.5 0 0121.5 333" fill="#A0BBFB"/><path d="M51.5 302a1.5 1.5 0 11.001 2.999A1.5 1.5 0 0151.5 302" fill="#FFB8B8"/><path d="M4.5 269a1.5 1.5 0 11.001 2.999A1.5 1.5 0 014.5 269" fill="#A4FDD4"/><path d="M102 400a5 5 0 11-10 0 5 5 0 0110 0" fill="#FFF"/><path d="M102 400.278c0 2.604-2.241 4.722-5 4.722s-5-2.118-5-4.722c0-.446.062-.873.187-1.278.444 2.178 2.48 3.816 4.911 3.816 2.294 0 4.226-1.462 4.813-3.453.054.293.089.605.089.915" fill="#DCE7F2"/><path d="M102 400a5 5 0 11-10 0 5 5 0 0110 0z" stroke="#004680" stroke-width="1.4" stroke-linecap="round" stroke-linejoin="round"/><path d="M111.013 260.772c-1.95 12.47-4.554 24.771-8.133 36.777-2 6.713-5.668 14.423-12.627 15.235-5.036-5.499-13.833-7.12-20.498-3.776-6.665 3.342-10.625 11.362-9.224 18.685-8.63 2.893-14.686 12.094-13.926 21.163.347 4.14 2.108 8.06 4.763 11.243-.118-.004-.237-.017-.356-.017-.29 0-.581.011-.874.034a10.932 10.932 0 00-7.504 3.824 10.928 10.928 0 00-2.599 8.006c.448 5.684 5.263 10.136 10.961 10.136a10.927 10.927 0 005.804-1.662 16.45 16.45 0 0010.522 3.785c2.814 0 5.462-.708 7.783-1.95a18.181 18.181 0 004.272 1.4c7.843 1.51 16.438-2.402 20.448-9.31 5.591 4.135 13.69 4.529 19.657.96 2.758 6.533 11.019 10.13 17.684 7.703.918 9.645 10.383 17.648 20.05 16.95 9.668-.696 17.888-9.972 17.412-19.651 1.906.682 3.914.991 5.925.979 2.578 7.184 9.437 12.346 17.498 12.346 9.892 0 18.004-7.76 18.57-17.511a10.202 10.202 0 006.92-3.563 10.2 10.2 0 002.426-7.48c-.36-4.573-3.754-8.285-8.09-9.222a20.817 20.817 0 001.344-3.845c1.898-7.996-1.178-16.959-7.59-22.102-3.62-2.905-3.47-2.735-4.567-7.292-1.808-7.506-8.097-13.748-15.618-15.498-7.523-1.753-15.923 1.07-20.862 7.005-11.09-2.099-13.064-16.583-13.96-21.697-5.322-30.376-10.549-59.312-13.049-89.073-6.57-78.174-1.89-99.354-12.221-99.354-6.253 0-10.871 13.018-10.912 15.614-.202 13.009-.941 26.013-1.702 39-1.706 29.05-2.3 59.122-5.85 88.538M112.074 253.463c-.048.358-.098.714-.148 1.074" fill="#FFF"/><path d="M190 306.712c-7.113-1.082-14.745 1.742-19.358 7.288-11.08-2.1-13.053-16.575-13.949-21.685-5.317-30.357-10.537-59.277-13.036-89.02-6.563-78.126-1.89-99.295-12.209-99.295-6.248 0-10.862 13.012-10.903 15.606-.202 13.001-.94 25.996-1.701 38.976-1.704 29.032-2.297 59.086-5.844 88.485" stroke="#004680" stroke-width="1.4" stroke-linecap="round" stroke-linejoin="round"/><path d="M111.013 260c-1.95 12.45-4.554 24.731-8.133 36.717-2 6.702-5.668 14.4-12.627 15.21-5.036-5.49-13.833-7.109-20.498-3.77-6.665 3.337-10.625 11.344-9.224 18.655-8.63 2.888-14.686 12.074-13.926 21.128.347 4.133 2.108 8.046 4.763 11.225-.118-.005-.237-.017-.356-.017-.29 0-.581.01-.874.034a10.938 10.938 0 00-7.504 3.817 10.899 10.899 0 00-2.599 7.993c.448 5.675 5.263 10.12 10.961 10.12a10.94 10.94 0 005.804-1.66 16.467 16.467 0 0010.522 3.779c2.814 0 5.462-.707 7.783-1.947a18.202 18.202 0 004.272 1.397c7.843 1.508 16.438-2.397 20.448-9.293 5.591 4.127 13.69 4.52 19.657.957 2.758 6.523 11.019 10.115 17.684 7.691.918 9.63 10.383 17.62 20.05 16.922 9.668-.695 17.888-9.956 17.412-19.619 1.906.68 3.914.99 5.925.977 2.578 7.173 9.437 12.326 17.498 12.326 9.892 0 18.004-7.747 18.57-17.482a10.208 10.208 0 006.92-3.557 10.173 10.173 0 002.426-7.467c-.36-4.566-3.754-8.272-8.09-9.208a20.76 20.76 0 001.344-3.839c1.898-7.982-1.178-16.93-7.59-22.065-3.62-2.9-3.47-2.73-4.567-7.28-1.437-5.953-5.7-11.11-11.165-13.854" stroke="#004680" stroke-width="1.4" stroke-linecap="round" stroke-linejoin="round"/><path d="M66.347 336.993a17.92 17.92 0 01-5.95-14.232" fill="#FFF"/><path d="M66.347 336.993a17.92 17.92 0 01-5.95-14.232" stroke="#004680" stroke-width="1.4" stroke-linecap="round" stroke-linejoin="round"/><path d="M72.326 340.504a16.482 16.482 0 01-1.487-.575" fill="#FFF"/><path d="M72.326 340.504a16.482 16.482 0 01-1.487-.575M112.074 253.463c-.048.358-.098.714-.148 1.074" stroke="#004680" stroke-width="1.4" stroke-linecap="round" stroke-linejoin="round"/><path d="M125.11 114c-1.845 16.764-2.214 24.471 5.539 58 4.983-31.987 5.168-36.418 3.137-58" fill="#DCE7F2"/><path d="M126.707 115c-1.176 8.092-1.41 11.814 3.523 28 3.173-15.44 3.29-17.582 1.997-28" fill="#FFF"/><path d="M102.353 80.697l-.461-3.981c-.845-7.304.937-14.717 4.788-19.928l8-10.825c-1.993 19.526-2.1 29.502 2.597 41.875-4.018 3.84-7.579 6.67-9.934 8.416-1.434 1.064-3.207-.128-3.462-2.326l-.402-3.498" fill="#FF6E6E"/><path d="M102.353 80.697l-.461-3.981c-.845-7.304.937-14.717 4.788-19.928l8-10.825c-1.993 19.526-2.1 29.502 2.597 41.875-4.018 3.84-7.579 6.67-9.934 8.416-1.434 1.064-3.207-.128-3.462-2.326l-.402-3.498" stroke="#004680" stroke-width="1.4" stroke-linecap="round" stroke-linejoin="round"/><path d="M150.232 44.668c2.29 10.372 2.894 21.557 1.663 34.628-.545 5.761-1.356 11.523-2.686 17.064a75.326 75.326 0 01-1.569 5.616c-1.017 3.116-2.268 6.095-3.829 8.778a23.267 23.267 0 01-1.183 1.832c-6.19 8.706-17.633 12.25-25.91-.014-1.834-2.717-3.516-6.22-4.946-10.609-.033-.087-.06-.181-.092-.28-1.737-5.39-2.813-11.137-3.558-16.911a149.84 149.84 0 01-.611-5.476c-2.122-22.508 1.197-39.418 9.195-56.217.352-.752.724-1.513 1.103-2.265 1.988-3.976 4.243-7.953 6.742-12.016.552-.906 2.174-3.51 5.151-7.44 2.414 3.19 3.978 5.522 5.153 7.44 2.368 3.838 4.507 7.62 6.417 11.377.464.92.916 1.838 1.356 2.757a110.426 110.426 0 013.515 8.164" fill="#FFF"/><path d="M150.232 44.668c2.29 10.372 2.894 21.557 1.663 34.628-.545 5.761-1.356 11.523-2.686 17.064a75.326 75.326 0 01-1.569 5.616c-1.017 3.116-2.268 6.095-3.829 8.778a23.267 23.267 0 01-1.183 1.832c-6.19 8.706-17.633 12.25-25.91-.014-1.834-2.717-3.516-6.22-4.946-10.609-.033-.087-.06-.181-.092-.28-1.737-5.39-2.813-11.137-3.558-16.911a149.84 149.84 0 01-.611-5.476c-2.122-22.508 1.197-39.418 9.195-56.217.352-.752.724-1.513 1.103-2.265 1.988-3.976 4.243-7.953 6.742-12.016.552-.906 2.174-3.51 5.151-7.44 2.414 3.19 3.978 5.522 5.153 7.44 2.368 3.838 4.507 7.62 6.417 11.377.464.92.916 1.838 1.356 2.757a110.426 110.426 0 013.515 8.164" stroke="#004680" stroke-width="1.4" stroke-linecap="round" stroke-linejoin="round"/><path d="M102.92 86.059l-.038-.329" fill="#DCE7F2"/><path d="M102.92 86.059l-.038-.329" stroke="#004680" stroke-width="1.4" stroke-linecap="round" stroke-linejoin="round"/><path d="M148.733 38.95c.097.33.193.66.288.991" fill="#FFF"/><path d="M148.733 38.95c.097.33.193.66.288.991" stroke="#004680" stroke-width="1.4" stroke-linecap="round" stroke-linejoin="round"/><path d="M143 113.02c-6.212 8.78-17.695 12.359-26-.02 3.582 1.118 8.106 1.772 13.029 1.772 4.897 0 9.4-.654 12.971-1.752" fill="#FF6E6E"/><path d="M143 113.02c-6.212 8.78-17.695 12.359-26-.02 3.582 1.118 8.106 1.772 13.029 1.772 4.897 0 9.4-.654 12.971-1.752z" stroke="#004680" stroke-width="1.4" stroke-linecap="round" stroke-linejoin="round"/><path d="M147.11 72c-.531 19.714-1.728 29.571-8.11 40.659a125.65 125.65 0 008.976 10.638c1.316 1.387 3.27.63 3.815-1.477l4.269-16.496c1.812-6.999.974-14.725-2.25-20.768L147.11 72z" fill="#FF6E6E"/><path d="M147.11 72c-.531 19.714-1.728 29.571-8.11 40.659a125.65 125.65 0 008.976 10.638c1.316 1.387 3.27.63 3.815-1.477l4.269-16.496c1.812-6.999.974-14.725-2.25-20.768L147.11 72z" stroke="#004680" stroke-width="1.4" stroke-linecap="round" stroke-linejoin="round"/><path d="M121.492 62.865c-2.676 4.5-7.01 4.465-9.68-.078-2.668-4.542-2.662-11.872.016-16.373 2.677-4.5 7.012-4.466 9.68.078 1.87 3.18 2.424 7.727 1.674 11.713" fill="#CEDEFB"/><path d="M121.492 62.865c-2.676 4.5-7.01 4.465-9.68-.078-2.668-4.542-2.662-11.872.016-16.373 2.677-4.5 7.012-4.466 9.68.078 1.87 3.18 2.424 7.727 1.674 11.713" stroke="#004680" stroke-width="1.4" stroke-linecap="round" stroke-linejoin="round"/><path d="M112.744 72.138c1.256-2.553 3.618-2.718 5.274-.369 1.656 2.35 1.98 6.324.725 8.878-1.256 2.551-3.62 2.717-5.276.369-.79-1.124-1.278-2.615-1.433-4.148" fill="#CEDEFB"/><path d="M112.744 72.138c1.256-2.553 3.618-2.718 5.274-.369 1.656 2.35 1.98 6.324.725 8.878-1.256 2.551-3.62 2.717-5.276.369-.79-1.124-1.278-2.615-1.433-4.148" stroke="#004680" stroke-width="1.4" stroke-linecap="round" stroke-linejoin="round"/><path d="M143 23.266A20.304 20.304 0 01129.915 28 20.338 20.338 0 01117 23.411c.353-.743.727-1.49 1.106-2.233 1.994-3.92 4.255-7.84 6.762-11.844.554-.893 2.18-3.46 5.167-7.334 2.421 3.144 3.99 5.442 5.169 7.334 2.374 3.781 4.522 7.51 6.436 11.214.465.906.919 1.811 1.36 2.718" fill="#FF6E6E"/><path d="M143 23.266A20.304 20.304 0 01129.915 28 20.338 20.338 0 01117 23.411c.353-.743.727-1.49 1.106-2.233 1.994-3.92 4.255-7.84 6.762-11.844.554-.893 2.18-3.46 5.167-7.334 2.421 3.144 3.99 5.442 5.169 7.334 2.374 3.781 4.522 7.51 6.436 11.214.465.906.919 1.811 1.36 2.718z" stroke="#004680" stroke-width="1.4" stroke-linecap="round" stroke-linejoin="round"/><path d="M68.578 381.94c-3.49 0-6.878-1.183-9.539-3.329l-.678-.548-.748.454a9.812 9.812 0 01-4.299 1.38c-.232.013-.485.027-.75.027-4.953 0-9.138-3.769-9.533-8.577a8.996 8.996 0 012.258-6.754 9.432 9.432 0 014.354-2.82 10.297 10.297 0 00-.036 2.16c.441 5.646 5.37 10.075 11.214 10.075.328 0 .636-.004.943-.04a11.205 11.205 0 004.25-1.19 16.725 16.725 0 009.726 3.111c2.48 0 4.935-.548 7.136-1.592 1.185.488 2.406.854 3.642 1.083 1.093.205 2.228.31 3.368.31 3.317 0 6.575-.862 9.423-2.394-3.141 5.126-9.231 8.43-15.567 8.43-1.053 0-2.102-.094-3.114-.283a17.223 17.223 0 01-3.894-1.243l-.557-.257-.543.283a15.287 15.287 0 01-7.056 1.713m128.238 8.987c-7.16 0-13.593-4.41-16.013-10.972l-.29-.787h-.859c-1.911 0-3.73-.291-5.41-.868l-.487-.166a16.706 16.706 0 001.204-5.294 17.86 17.86 0 003.342.452c2.793 6.59 9.453 10.963 16.83 10.963 9.299 0 17.06-6.806 18.098-15.665a10.67 10.67 0 006.114-3.431 10.29 10.29 0 002.212-4.158 8.348 8.348 0 011.414 3.994 8.345 8.345 0 01-2.09 6.268 8.887 8.887 0 01-5.958 2.986l-1.052.09-.063 1.024c-.516 8.728-7.98 15.564-16.992 15.564M155.613 397c-8.58 0-16.508-6.927-17.31-15.128l-.15-1.529-1.485.526a11.605 11.605 0 01-3.907.655c-5.128 0-10.018-3.018-11.892-7.34l-.548-1.263-1.207.707c-2.414 1.406-5.267 2.152-8.253 2.152-3.547 0-6.983-1.065-9.677-2.994l-.457-.33c1.98-1.287 3.71-2.92 5.053-4.818 2.718 1.63 5.978 2.519 9.317 2.519 2.742 0 5.393-.59 7.741-1.71 2.42 4.213 7.439 7.064 12.665 7.064 1.034 0 2.042-.112 3.016-.334 1.574 8.121 9.595 14.732 18.233 14.732.39 0 .78-.013 1.172-.04 6.19-.437 11.717-4.264 14.707-9.433-.164 8.19-7.524 15.933-15.968 16.53-.348.023-.7.034-1.05.034" fill="#DCE7F2"/><path d="M23.706 360c-3.86 0-7.265 1.969-9.304 4.974a7.583 7.583 0 00-.65-.034c-4.199 0-7.6 3.53-7.6 7.886 0 .608.073 1.194.199 1.764-2.986.2-5.351 2.893-5.351 6.195C1 384.218 3.553 387 6.704 387c1.786 0 3.378-.893 4.424-2.29a6.06 6.06 0 002.305.463c2.307 0 4.333-1.304 5.499-3.27 1.449.69 3.066 1.076 4.774 1.076 6.236 0 11.294-5.144 11.294-11.49C35 365.145 29.942 360 23.706 360" fill="#FFF"/><path d="M29.435 362.058c-.275-.2-.612.162-.394.422a10.323 10.323 0 012.406 6.66c0 5.605-4.38 10.149-9.783 10.149a9.44 9.44 0 01-3.907-.845.283.283 0 00-.359.112c-1.026 1.613-2.715 2.67-4.63 2.67a5.11 5.11 0 01-1.8-.33.285.285 0 00-.326.09c-.905 1.136-2.228 1.856-3.7 1.856-2.142 0-3.961-1.517-4.647-3.634-.04-.128-.226-.112-.243.02-.448 3.58 2.07 6.772 5.318 6.772 1.606 0 3.047-.786 4.033-2.03.078-.1.209-.137.328-.092.62.234 1.28.367 1.972.367 2.087 0 3.926-1.156 5.041-2.921a.284.284 0 01.36-.11c1.308.594 2.749.924 4.265.924 5.872 0 10.631-4.937 10.631-11.025 0-3.751-1.806-7.065-4.565-9.055" fill="#DCE7F2"/><path d="M8 387c1.342-.277 2.516-1.074 3.345-2.196a5.91 5.91 0 002.284.465c2.288 0 4.294-1.309 5.449-3.282a10.857 10.857 0 004.73 1.08c6.18 0 11.192-5.163 11.192-11.534C35 365.165 29.988 360 23.809 360c-.409 0-.808.023-1.205.066M3.739 385.884c.172.084.346.162.522.232M18 361a11.432 11.432 0 00-3.821 3.654 7.164 7.164 0 00-.64-.035c-4.128 0-7.472 3.615-7.472 8.074 0 .621.071 1.223.195 1.805-2.936.206-5.262 2.963-5.262 6.345 0 1.149.267 2.227.736 3.157" stroke="#004680" stroke-width="1.4" stroke-linecap="round" stroke-linejoin="round"/><path d="M223.563 376.982c-1.938-7.772-9.775-12.491-17.504-10.543a14.351 14.351 0 00-7.85 5.136 19.425 19.425 0 00-13.37-1.41c-10.5 2.647-16.879 13.354-14.246 23.912 2.633 10.56 13.28 16.974 23.782 14.326 5.17-1.304 9.337-4.562 11.925-8.794a8.005 8.005 0 007.54-5.24c7.272-2.26 11.597-9.872 9.723-17.387" fill="#FFF"/><path d="M212.552 393.468a.511.511 0 00-.314.295 6.823 6.823 0 01-6.074 4.24.519.519 0 00-.422.238 16.682 16.682 0 01-10.034 7.252 16.618 16.618 0 01-9.343-.35c-.567-.189-.441-1.022.155-1.022a16.84 16.84 0 004.102-.507 16.691 16.691 0 0010.032-7.254.519.519 0 01.423-.238 6.81 6.81 0 006.073-4.238.519.519 0 01.316-.296c6.071-2.009 9.652-8.41 8.075-14.729a12.286 12.286 0 00-3.464-5.95c-.401-.383-.011-1.056.514-.88a12.33 12.33 0 018.036 8.71c1.58 6.319-2.004 12.72-8.075 14.73" fill="#DCE7F2"/><path d="M203 367a14.26 14.26 0 00-5.015 4.046 19.434 19.434 0 00-13.263-1.389c-9.356 2.34-15.412 11.068-14.659 20.343M206.28 365.935c-.188.042-.374.084-.56.13M170 394.078c2.66 10.56 13.427 16.972 24.046 14.326a19.742 19.742 0 0012.056-8.794 8.117 8.117 0 002.011-.242 8.063 8.063 0 005.614-4.998c7.352-2.262 11.726-9.873 9.832-17.386-1.662-6.587-7.608-10.984-14.14-10.984" stroke="#004680" stroke-width="1.4" stroke-linecap="round" stroke-linejoin="round"/><path d="M167.855 321.628c.715-4.56 3.346-8.536 7.098-11.191" fill="#FFF"/><path d="M167.855 321.628c.715-4.56 3.346-8.536 7.098-11.191" stroke="#004680" stroke-width="1.4" stroke-linecap="round" stroke-linejoin="round"/><g><path d="M213.91 355.512a11.615 11.615 0 011.734-.129c1.647 0 3.207.345 4.602.962" fill="#FFF"/><path d="M213.91 355.512a11.615 11.615 0 011.734-.129c1.647 0 3.207.345 4.602.962" stroke="#004680" stroke-width="1.4" stroke-linecap="round" stroke-linejoin="round"/></g><path d="M104.925 367a24.436 24.436 0 003.808-13.141c0-13.47-10.804-24.385-24.119-24.385-3.034 0-5.931.562-8.614 1.605A22.72 22.72 0 0189.006 327C101.704 327 112 337.4 112 350.245A23.246 23.246 0 01104.925 367M171 365.908a16.586 16.586 0 00-6.233-7.148c-7.872-4.981-18.36-2.528-23.422 5.471a17.244 17.244 0 00-2.338 5.769 16.472 16.472 0 012.562-9.322c4.828-7.63 14.82-9.97 22.329-5.217 3.85 2.436 6.296 6.265 7.102 10.447M188 352.592a9.779 9.779 0 00-3.703-4.204c-4.673-2.93-10.9-1.488-13.904 3.218a10.084 10.084 0 00-1.389 3.394 9.628 9.628 0 011.52-5.485c2.867-4.487 8.802-5.863 13.258-3.067a9.333 9.333 0 014.218 6.144M136 325.509a10.346 10.346 0 00-5.784-.243c-5.513 1.353-8.839 6.887-7.43 12.356a10.16 10.16 0 001.568 3.378 9.765 9.765 0 01-3.045-4.934c-1.345-5.216 1.825-10.489 7.084-11.78A9.882 9.882 0 01136 325.51" fill="#DCE7F2"/><path d="M206 398.761c-1.1-.178-2.123-.714-3-1.522" stroke="#004680" stroke-width="1.4" stroke-linecap="round" stroke-linejoin="round"/><path d="M66.974 252.024a3.5 3.5 0 11-4.95 4.95 3.502 3.502 0 010-4.95 3.502 3.502 0 014.95 0" fill="#FFB8B8"/><path d="M28.12 302.88a3.001 3.001 0 11-4.243 4.24 3.001 3.001 0 014.244-4.24" fill="#A4FDD4"/><path d="M262.5 351c1.382 0 2.5 1.118 2.5 2.5s-1.118 2.5-2.5 2.5a2.499 2.499 0 01-2.5-2.5c0-1.382 1.118-2.5 2.5-2.5" fill="#FFB8B8"/><path d="M196.5 269a1.5 1.5 0 11.001 2.999A1.5 1.5 0 01196.5 269" fill="#A4FDD4"/><path d="M81 276a2.001 2.001 0 010 4 2 2 0 010-4M21.5 333a1.5 1.5 0 11.001 2.999A1.5 1.5 0 0121.5 333" fill="#A0BBFB"/><path d="M51.5 302a1.5 1.5 0 11.001 2.999A1.5 1.5 0 0151.5 302" fill="#FFB8B8"/><path d="M4.5 269a1.5 1.5 0 11.001 2.999A1.5 1.5 0 014.5 269" fill="#A4FDD4"/><path d="M102 400a5 5 0 11-10 0 5 5 0 0110 0" fill="#FFF"/><path d="M102 400.278c0 2.604-2.241 4.722-5 4.722s-5-2.118-5-4.722c0-.446.062-.873.187-1.278.444 2.178 2.48 3.816 4.911 3.816 2.294 0 4.226-1.462 4.813-3.453.054.293.089.605.089.915" fill="#DCE7F2"/><path d="M102 400a5 5 0 11-10 0 5 5 0 0110 0z" stroke="#004680" stroke-width="1.4" stroke-linecap="round" stroke-linejoin="round"/></g></svg>